<mxfile host="app.diagrams.net" modified="2023-10-19T17:00:05.864Z" agent="Mozilla/5.0 (Windows NT 10.0; Win64; x64) AppleWebKit/537.36 (KHTML, like Gecko) Chrome/118.0.0.0 Safari/537.36 Edg/118.0.2088.46" etag="jzuYwP4wFLJ-9bQO5hO9" version="22.0.5" type="device">
  <diagram id="C5RBs43oDa-KdzZeNtuy" name="Page-1">
    <mxGraphModel dx="2722" dy="1035" grid="1" gridSize="10" guides="1" tooltips="1" connect="1" arrows="1" fold="1" page="1" pageScale="1" pageWidth="827" pageHeight="1169" math="0" shadow="0">
      <root>
        <mxCell id="WIyWlLk6GJQsqaUBKTNV-0" />
        <mxCell id="WIyWlLk6GJQsqaUBKTNV-1" parent="WIyWlLk6GJQsqaUBKTNV-0" />
        <mxCell id="uQH5sqy9IkEoPEDaw30T-36" style="edgeStyle=orthogonalEdgeStyle;rounded=0;orthogonalLoop=1;jettySize=auto;html=1;exitX=0.5;exitY=0;exitDx=0;exitDy=0;" edge="1" parent="WIyWlLk6GJQsqaUBKTNV-1" source="uQH5sqy9IkEoPEDaw30T-5">
          <mxGeometry relative="1" as="geometry">
            <mxPoint x="359.46153846153834" y="249.30769230769238" as="targetPoint" />
          </mxGeometry>
        </mxCell>
        <mxCell id="uQH5sqy9IkEoPEDaw30T-5" value="" style="rhombus;whiteSpace=wrap;html=1;" vertex="1" parent="WIyWlLk6GJQsqaUBKTNV-1">
          <mxGeometry x="320" y="250" width="80" height="80" as="geometry" />
        </mxCell>
        <mxCell id="uQH5sqy9IkEoPEDaw30T-9" value="" style="rhombus;whiteSpace=wrap;html=1;" vertex="1" parent="WIyWlLk6GJQsqaUBKTNV-1">
          <mxGeometry x="320" y="630" width="80" height="80" as="geometry" />
        </mxCell>
        <mxCell id="uQH5sqy9IkEoPEDaw30T-24" value="" style="edgeStyle=orthogonalEdgeStyle;rounded=0;orthogonalLoop=1;jettySize=auto;html=1;" edge="1" parent="WIyWlLk6GJQsqaUBKTNV-1" source="uQH5sqy9IkEoPEDaw30T-19">
          <mxGeometry relative="1" as="geometry">
            <mxPoint x="200" y="100" as="targetPoint" />
          </mxGeometry>
        </mxCell>
        <mxCell id="uQH5sqy9IkEoPEDaw30T-19" value="" style="ellipse;html=1;shape=startState;fillColor=#000000;strokeColor=#ff0000;" vertex="1" parent="WIyWlLk6GJQsqaUBKTNV-1">
          <mxGeometry x="-75" y="63.13" width="75" height="73.75" as="geometry" />
        </mxCell>
        <mxCell id="uQH5sqy9IkEoPEDaw30T-27" value="&lt;font style=&quot;font-size: 23px;&quot;&gt;Give back certificate&lt;/font&gt;" style="rounded=1;whiteSpace=wrap;html=1;arcSize=40;fontColor=#000000;fillColor=#ffffc0;strokeColor=#ff0000;" vertex="1" parent="WIyWlLk6GJQsqaUBKTNV-1">
          <mxGeometry x="-60" y="340" width="250" height="40" as="geometry" />
        </mxCell>
        <mxCell id="uQH5sqy9IkEoPEDaw30T-29" value="&lt;font style=&quot;font-size: 23px;&quot;&gt;Give certificate&lt;/font&gt;" style="rounded=1;whiteSpace=wrap;html=1;arcSize=40;fontColor=#000000;fillColor=#ffffc0;strokeColor=#ff0000;" vertex="1" parent="WIyWlLk6GJQsqaUBKTNV-1">
          <mxGeometry x="200" y="80" width="250" height="40" as="geometry" />
        </mxCell>
        <mxCell id="uQH5sqy9IkEoPEDaw30T-30" value="&lt;font style=&quot;font-size: 23px;&quot;&gt;Check Document&lt;/font&gt;" style="rounded=1;whiteSpace=wrap;html=1;arcSize=40;fontColor=#000000;fillColor=#ffffc0;strokeColor=#ff0000;" vertex="1" parent="WIyWlLk6GJQsqaUBKTNV-1">
          <mxGeometry x="235" y="470" width="250" height="40" as="geometry" />
        </mxCell>
        <mxCell id="uQH5sqy9IkEoPEDaw30T-31" value="&lt;font style=&quot;font-size: 23px;&quot;&gt;Give back Document&lt;/font&gt;" style="rounded=1;whiteSpace=wrap;html=1;arcSize=40;fontColor=#000000;fillColor=#ffffc0;strokeColor=#ff0000;" vertex="1" parent="WIyWlLk6GJQsqaUBKTNV-1">
          <mxGeometry x="-60" y="1000" width="250" height="40" as="geometry" />
        </mxCell>
        <mxCell id="uQH5sqy9IkEoPEDaw30T-32" value="&lt;font style=&quot;font-size: 23px;&quot;&gt;Give Ballot Paper&amp;nbsp;&lt;/font&gt;" style="rounded=1;whiteSpace=wrap;html=1;arcSize=40;fontColor=#000000;fillColor=#ffffc0;strokeColor=#ff0000;" vertex="1" parent="WIyWlLk6GJQsqaUBKTNV-1">
          <mxGeometry x="235" y="830" width="250" height="40" as="geometry" />
        </mxCell>
        <mxCell id="uQH5sqy9IkEoPEDaw30T-33" value="" style="endArrow=open;endFill=1;endSize=12;html=1;rounded=0;exitX=0.649;exitY=1.179;exitDx=0;exitDy=0;exitPerimeter=0;entryX=0.5;entryY=0;entryDx=0;entryDy=0;" edge="1" parent="WIyWlLk6GJQsqaUBKTNV-1" source="uQH5sqy9IkEoPEDaw30T-29" target="uQH5sqy9IkEoPEDaw30T-5">
          <mxGeometry width="160" relative="1" as="geometry">
            <mxPoint x="180" y="300" as="sourcePoint" />
            <mxPoint x="340" y="300" as="targetPoint" />
          </mxGeometry>
        </mxCell>
        <mxCell id="uQH5sqy9IkEoPEDaw30T-35" value="" style="endArrow=open;endFill=1;endSize=12;html=1;rounded=0;entryX=0.5;entryY=0;entryDx=0;entryDy=0;exitX=0;exitY=0.5;exitDx=0;exitDy=0;" edge="1" parent="WIyWlLk6GJQsqaUBKTNV-1" source="uQH5sqy9IkEoPEDaw30T-5" target="uQH5sqy9IkEoPEDaw30T-27">
          <mxGeometry width="160" relative="1" as="geometry">
            <mxPoint x="180" y="290" as="sourcePoint" />
            <mxPoint x="340" y="290" as="targetPoint" />
          </mxGeometry>
        </mxCell>
        <mxCell id="uQH5sqy9IkEoPEDaw30T-37" value="" style="endArrow=open;endFill=1;endSize=12;html=1;rounded=0;exitX=0.5;exitY=1;exitDx=0;exitDy=0;entryX=0.5;entryY=0;entryDx=0;entryDy=0;" edge="1" parent="WIyWlLk6GJQsqaUBKTNV-1" source="uQH5sqy9IkEoPEDaw30T-30" target="uQH5sqy9IkEoPEDaw30T-9">
          <mxGeometry width="160" relative="1" as="geometry">
            <mxPoint x="180" y="740" as="sourcePoint" />
            <mxPoint x="340" y="740" as="targetPoint" />
          </mxGeometry>
        </mxCell>
        <mxCell id="uQH5sqy9IkEoPEDaw30T-38" value="" style="endArrow=open;endFill=1;endSize=12;html=1;rounded=0;exitX=0.5;exitY=1;exitDx=0;exitDy=0;entryX=0.5;entryY=0;entryDx=0;entryDy=0;" edge="1" parent="WIyWlLk6GJQsqaUBKTNV-1" source="uQH5sqy9IkEoPEDaw30T-9" target="uQH5sqy9IkEoPEDaw30T-32">
          <mxGeometry width="160" relative="1" as="geometry">
            <mxPoint x="340" y="760" as="sourcePoint" />
            <mxPoint x="340" y="780" as="targetPoint" />
          </mxGeometry>
        </mxCell>
        <mxCell id="uQH5sqy9IkEoPEDaw30T-39" value="" style="endArrow=open;endFill=1;endSize=12;html=1;rounded=0;exitX=0;exitY=0.5;exitDx=0;exitDy=0;entryX=0.552;entryY=-0.021;entryDx=0;entryDy=0;entryPerimeter=0;" edge="1" parent="WIyWlLk6GJQsqaUBKTNV-1" source="uQH5sqy9IkEoPEDaw30T-9" target="uQH5sqy9IkEoPEDaw30T-31">
          <mxGeometry width="160" relative="1" as="geometry">
            <mxPoint x="180" y="740" as="sourcePoint" />
            <mxPoint x="340" y="740" as="targetPoint" />
            <Array as="points">
              <mxPoint x="80" y="680" />
            </Array>
          </mxGeometry>
        </mxCell>
        <mxCell id="uQH5sqy9IkEoPEDaw30T-40" value="" style="ellipse;html=1;shape=endState;fillColor=#000000;strokeColor=#ff0000;" vertex="1" parent="WIyWlLk6GJQsqaUBKTNV-1">
          <mxGeometry x="-120" y="620" width="45" height="45" as="geometry" />
        </mxCell>
        <mxCell id="uQH5sqy9IkEoPEDaw30T-41" value="" style="endArrow=open;endFill=1;endSize=12;html=1;rounded=0;exitX=0.5;exitY=1;exitDx=0;exitDy=0;entryX=1;entryY=0;entryDx=0;entryDy=0;" edge="1" parent="WIyWlLk6GJQsqaUBKTNV-1" source="uQH5sqy9IkEoPEDaw30T-27" target="uQH5sqy9IkEoPEDaw30T-40">
          <mxGeometry width="160" relative="1" as="geometry">
            <mxPoint x="-50" y="560" as="sourcePoint" />
            <mxPoint x="110" y="560" as="targetPoint" />
          </mxGeometry>
        </mxCell>
        <mxCell id="uQH5sqy9IkEoPEDaw30T-43" value="" style="endArrow=open;endFill=1;endSize=12;html=1;rounded=0;exitX=0.25;exitY=0;exitDx=0;exitDy=0;entryX=0.474;entryY=1.246;entryDx=0;entryDy=0;entryPerimeter=0;" edge="1" parent="WIyWlLk6GJQsqaUBKTNV-1" source="uQH5sqy9IkEoPEDaw30T-31" target="uQH5sqy9IkEoPEDaw30T-40">
          <mxGeometry width="160" relative="1" as="geometry">
            <mxPoint x="-90" y="870" as="sourcePoint" />
            <mxPoint x="70" y="870" as="targetPoint" />
          </mxGeometry>
        </mxCell>
        <mxCell id="uQH5sqy9IkEoPEDaw30T-44" value="&lt;font style=&quot;font-size: 20px;&quot;&gt;Right Number&amp;nbsp;&lt;/font&gt;" style="text;html=1;strokeColor=none;fillColor=none;align=center;verticalAlign=middle;whiteSpace=wrap;rounded=0;" vertex="1" parent="WIyWlLk6GJQsqaUBKTNV-1">
          <mxGeometry x="380" y="170" width="140" height="30" as="geometry" />
        </mxCell>
        <mxCell id="uQH5sqy9IkEoPEDaw30T-45" value="&lt;font style=&quot;font-size: 20px;&quot;&gt;Document not valid&amp;nbsp;&lt;/font&gt;" style="text;html=1;strokeColor=none;fillColor=none;align=center;verticalAlign=middle;whiteSpace=wrap;rounded=0;" vertex="1" parent="WIyWlLk6GJQsqaUBKTNV-1">
          <mxGeometry x="30" y="635" width="210" height="30" as="geometry" />
        </mxCell>
        <mxCell id="uQH5sqy9IkEoPEDaw30T-47" value="&lt;font style=&quot;font-size: 20px;&quot;&gt;new elector&lt;/font&gt;" style="text;html=1;strokeColor=none;fillColor=none;align=center;verticalAlign=middle;whiteSpace=wrap;rounded=0;" vertex="1" parent="WIyWlLk6GJQsqaUBKTNV-1">
          <mxGeometry x="-100" y="140" width="140" height="30" as="geometry" />
        </mxCell>
        <mxCell id="uQH5sqy9IkEoPEDaw30T-48" value="&lt;font style=&quot;font-size: 18px;&quot;&gt;wrong polling station number&lt;/font&gt;" style="text;html=1;strokeColor=none;fillColor=none;align=center;verticalAlign=middle;whiteSpace=wrap;rounded=0;" vertex="1" parent="WIyWlLk6GJQsqaUBKTNV-1">
          <mxGeometry x="-160" y="300" width="240" height="30" as="geometry" />
        </mxCell>
        <mxCell id="uQH5sqy9IkEoPEDaw30T-52" value="" style="html=1;points=[];perimeter=orthogonalPerimeter;fillColor=strokeColor;direction=south;" vertex="1" parent="WIyWlLk6GJQsqaUBKTNV-1">
          <mxGeometry x="900" y="97.51" width="290" height="5" as="geometry" />
        </mxCell>
        <mxCell id="uQH5sqy9IkEoPEDaw30T-53" value="" style="html=1;points=[];perimeter=orthogonalPerimeter;fillColor=strokeColor;" vertex="1" parent="WIyWlLk6GJQsqaUBKTNV-1">
          <mxGeometry x="310" y="890" width="5" height="250" as="geometry" />
        </mxCell>
        <mxCell id="uQH5sqy9IkEoPEDaw30T-55" value="" style="endArrow=open;endFill=1;endSize=12;html=1;rounded=0;" edge="1" parent="WIyWlLk6GJQsqaUBKTNV-1">
          <mxGeometry width="160" relative="1" as="geometry">
            <mxPoint x="200" y="1020" as="sourcePoint" />
            <mxPoint x="310" y="1020" as="targetPoint" />
          </mxGeometry>
        </mxCell>
        <mxCell id="uQH5sqy9IkEoPEDaw30T-58" value="" style="endArrow=open;endFill=1;endSize=12;html=1;rounded=0;entryX=1.84;entryY=0.497;entryDx=0;entryDy=0;entryPerimeter=0;" edge="1" parent="WIyWlLk6GJQsqaUBKTNV-1" target="uQH5sqy9IkEoPEDaw30T-52">
          <mxGeometry width="160" relative="1" as="geometry">
            <mxPoint x="500" y="850" as="sourcePoint" />
            <mxPoint x="880" y="10" as="targetPoint" />
            <Array as="points">
              <mxPoint x="610" y="850" />
              <mxPoint x="600" y="20" />
              <mxPoint x="1046" y="20" />
            </Array>
          </mxGeometry>
        </mxCell>
        <mxCell id="uQH5sqy9IkEoPEDaw30T-59" value="" style="endArrow=open;endFill=1;endSize=12;html=1;rounded=0;" edge="1" parent="WIyWlLk6GJQsqaUBKTNV-1">
          <mxGeometry width="160" relative="1" as="geometry">
            <mxPoint x="1030" y="100" as="sourcePoint" />
            <mxPoint x="860" y="220" as="targetPoint" />
          </mxGeometry>
        </mxCell>
        <mxCell id="uQH5sqy9IkEoPEDaw30T-60" value="" style="endArrow=open;endFill=1;endSize=12;html=1;rounded=0;" edge="1" parent="WIyWlLk6GJQsqaUBKTNV-1" source="uQH5sqy9IkEoPEDaw30T-63">
          <mxGeometry width="160" relative="1" as="geometry">
            <mxPoint x="1115" y="116" as="sourcePoint" />
            <mxPoint x="1270" y="230" as="targetPoint" />
          </mxGeometry>
        </mxCell>
        <mxCell id="uQH5sqy9IkEoPEDaw30T-61" value="&lt;font style=&quot;font-size: 23px;&quot;&gt;Assign freee cabin&amp;nbsp;&lt;/font&gt;" style="rounded=1;whiteSpace=wrap;html=1;arcSize=40;fontColor=#000000;fillColor=#ffffc0;strokeColor=#ff0000;" vertex="1" parent="WIyWlLk6GJQsqaUBKTNV-1">
          <mxGeometry x="780" y="220" width="230" height="40" as="geometry" />
        </mxCell>
        <mxCell id="uQH5sqy9IkEoPEDaw30T-64" value="" style="endArrow=open;endFill=1;endSize=12;html=1;rounded=0;" edge="1" parent="WIyWlLk6GJQsqaUBKTNV-1" target="uQH5sqy9IkEoPEDaw30T-63">
          <mxGeometry width="160" relative="1" as="geometry">
            <mxPoint x="1115" y="116" as="sourcePoint" />
            <mxPoint x="1270" y="230" as="targetPoint" />
          </mxGeometry>
        </mxCell>
        <mxCell id="uQH5sqy9IkEoPEDaw30T-63" value="Activity" style="rounded=1;whiteSpace=wrap;html=1;arcSize=40;fontColor=#000000;fillColor=#ffffc0;strokeColor=#ff0000;" vertex="1" parent="WIyWlLk6GJQsqaUBKTNV-1">
          <mxGeometry x="1210" y="230" width="120" height="40" as="geometry" />
        </mxCell>
        <mxCell id="uQH5sqy9IkEoPEDaw30T-65" value="Activity" style="rounded=1;whiteSpace=wrap;html=1;arcSize=40;fontColor=#000000;fillColor=#ffffc0;strokeColor=#ff0000;" vertex="1" parent="WIyWlLk6GJQsqaUBKTNV-1">
          <mxGeometry x="780" y="350" width="120" height="40" as="geometry" />
        </mxCell>
        <mxCell id="uQH5sqy9IkEoPEDaw30T-66" value="Activity" style="rounded=1;whiteSpace=wrap;html=1;arcSize=40;fontColor=#000000;fillColor=#ffffc0;strokeColor=#ff0000;" vertex="1" parent="WIyWlLk6GJQsqaUBKTNV-1">
          <mxGeometry x="1210" y="370" width="120" height="40" as="geometry" />
        </mxCell>
        <mxCell id="uQH5sqy9IkEoPEDaw30T-67" value="Activity" style="rounded=1;whiteSpace=wrap;html=1;arcSize=40;fontColor=#000000;fillColor=#ffffc0;strokeColor=#ff0000;" vertex="1" parent="WIyWlLk6GJQsqaUBKTNV-1">
          <mxGeometry x="780" y="460" width="120" height="40" as="geometry" />
        </mxCell>
        <mxCell id="uQH5sqy9IkEoPEDaw30T-68" value="Activity" style="rounded=1;whiteSpace=wrap;html=1;arcSize=40;fontColor=#000000;fillColor=#ffffc0;strokeColor=#ff0000;" vertex="1" parent="WIyWlLk6GJQsqaUBKTNV-1">
          <mxGeometry x="780" y="710" width="120" height="40" as="geometry" />
        </mxCell>
        <mxCell id="uQH5sqy9IkEoPEDaw30T-70" value="Activity" style="rounded=1;whiteSpace=wrap;html=1;arcSize=40;fontColor=#000000;fillColor=#ffffc0;strokeColor=#ff0000;" vertex="1" parent="WIyWlLk6GJQsqaUBKTNV-1">
          <mxGeometry x="780" y="564.5" width="120" height="40" as="geometry" />
        </mxCell>
        <mxCell id="uQH5sqy9IkEoPEDaw30T-73" value="" style="endArrow=open;endFill=1;endSize=12;html=1;rounded=0;exitX=0.5;exitY=1;exitDx=0;exitDy=0;entryX=0.5;entryY=0;entryDx=0;entryDy=0;" edge="1" parent="WIyWlLk6GJQsqaUBKTNV-1" source="uQH5sqy9IkEoPEDaw30T-61" target="uQH5sqy9IkEoPEDaw30T-65">
          <mxGeometry width="160" relative="1" as="geometry">
            <mxPoint x="980" y="250" as="sourcePoint" />
            <mxPoint x="1020" y="460" as="targetPoint" />
          </mxGeometry>
        </mxCell>
        <mxCell id="uQH5sqy9IkEoPEDaw30T-76" value="" style="endArrow=open;endFill=1;endSize=12;html=1;rounded=0;exitX=0.5;exitY=1;exitDx=0;exitDy=0;entryX=0.5;entryY=0;entryDx=0;entryDy=0;" edge="1" parent="WIyWlLk6GJQsqaUBKTNV-1" source="uQH5sqy9IkEoPEDaw30T-65" target="uQH5sqy9IkEoPEDaw30T-67">
          <mxGeometry width="160" relative="1" as="geometry">
            <mxPoint x="860" y="460" as="sourcePoint" />
            <mxPoint x="1020" y="460" as="targetPoint" />
          </mxGeometry>
        </mxCell>
        <mxCell id="uQH5sqy9IkEoPEDaw30T-77" value="" style="endArrow=open;endFill=1;endSize=12;html=1;rounded=0;entryX=0.5;entryY=0;entryDx=0;entryDy=0;" edge="1" parent="WIyWlLk6GJQsqaUBKTNV-1" target="uQH5sqy9IkEoPEDaw30T-70">
          <mxGeometry width="160" relative="1" as="geometry">
            <mxPoint x="840" y="500" as="sourcePoint" />
            <mxPoint x="1020" y="460" as="targetPoint" />
          </mxGeometry>
        </mxCell>
        <mxCell id="uQH5sqy9IkEoPEDaw30T-78" value="" style="endArrow=open;endFill=1;endSize=12;html=1;rounded=0;exitX=0.5;exitY=1;exitDx=0;exitDy=0;entryX=0.5;entryY=0;entryDx=0;entryDy=0;" edge="1" parent="WIyWlLk6GJQsqaUBKTNV-1" source="uQH5sqy9IkEoPEDaw30T-70" target="uQH5sqy9IkEoPEDaw30T-68">
          <mxGeometry width="160" relative="1" as="geometry">
            <mxPoint x="790" y="470" as="sourcePoint" />
            <mxPoint x="950" y="470" as="targetPoint" />
          </mxGeometry>
        </mxCell>
        <mxCell id="uQH5sqy9IkEoPEDaw30T-80" value="" style="endArrow=open;endFill=1;endSize=12;html=1;rounded=0;exitX=0.5;exitY=1;exitDx=0;exitDy=0;entryX=0.5;entryY=0;entryDx=0;entryDy=0;" edge="1" parent="WIyWlLk6GJQsqaUBKTNV-1" source="uQH5sqy9IkEoPEDaw30T-63" target="uQH5sqy9IkEoPEDaw30T-66">
          <mxGeometry width="160" relative="1" as="geometry">
            <mxPoint x="1040" y="470" as="sourcePoint" />
            <mxPoint x="1200" y="470" as="targetPoint" />
          </mxGeometry>
        </mxCell>
        <mxCell id="uQH5sqy9IkEoPEDaw30T-81" value="" style="endArrow=open;endFill=1;endSize=12;html=1;rounded=0;exitX=0.5;exitY=1;exitDx=0;exitDy=0;entryX=0.903;entryY=0.716;entryDx=0;entryDy=0;entryPerimeter=0;" edge="1" parent="WIyWlLk6GJQsqaUBKTNV-1" source="uQH5sqy9IkEoPEDaw30T-66" target="uQH5sqy9IkEoPEDaw30T-53">
          <mxGeometry width="160" relative="1" as="geometry">
            <mxPoint x="1040" y="470" as="sourcePoint" />
            <mxPoint x="330" y="1000" as="targetPoint" />
            <Array as="points">
              <mxPoint x="1270" y="1060" />
            </Array>
          </mxGeometry>
        </mxCell>
        <mxCell id="uQH5sqy9IkEoPEDaw30T-82" value="" style="endArrow=open;endFill=1;endSize=12;html=1;rounded=0;" edge="1" parent="WIyWlLk6GJQsqaUBKTNV-1">
          <mxGeometry width="160" relative="1" as="geometry">
            <mxPoint x="850" y="760" as="sourcePoint" />
            <mxPoint x="320" y="1030" as="targetPoint" />
            <Array as="points">
              <mxPoint x="850" y="960" />
            </Array>
          </mxGeometry>
        </mxCell>
      </root>
    </mxGraphModel>
  </diagram>
</mxfile>
